<?xml version="1.0" encoding="utf-8"?>
<!-- Generator: Adobe Illustrator 25.4.1, SVG Export Plug-In . SVG Version: 6.00 Build 0)  -->
<svg version="1.1" id="Lager_1" xmlns="http://www.w3.org/2000/svg" xmlns:xlink="http://www.w3.org/1999/xlink" x="0px" y="0px"
	 viewBox="0 0 459.11 270.03" style="enable-background:new 0 0 459.11 270.03;" xml:space="preserve">
<style type="text/css">
	.st0{fill:#FFFFFF;}
</style>
<path class="st0" d="M215.97,241.39c0-4.11,0.25-7.82-0.05-11.49c-1.03-12.75-9.02-22.66-20.37-25.59
	c-12.57-3.24-24.58,1.06-31.63,11.64c-4.41,6.61-5.58,14.12-5.57,21.99c0.01,15.75,10.87,33.71,33.77,31.65
	c11.06-0.99,21.1-9.65,22.38-20.37c-3.75,0-7.46,0.11-11.17-0.04c-2.15-0.09-3.56,0.32-4.43,2.57c-1.35,3.48-4.39,4.94-7.89,5.51
	c-9.81,1.59-17.2-5.16-16.95-15.87C187.93,241.39,201.82,241.39,215.97,241.39z M392.6,241.39c-1.05-6.9-1.19-13.26-3.07-19.07
	c-6.39-19.8-31.39-25.64-46.22-11.11c-8.58,8.41-10.2,19.08-9.15,30.3c1.92,20.37,18.56,32.29,38.67,26.99
	c9.41-2.48,16.46-10.75,16.88-19.09c-4.66,0-9.32,0-13.97,0c-3.26,6.75-9.02,9.51-15.87,7.64c-6.65-1.82-10.99-8.22-10.33-15.66
	C363.42,241.39,377.33,241.39,392.6,241.39z M137.82,254.73c-3.27,0.17-6.01,0.38-8.77,0.43c-5.98,0.09-8.14-2-8.16-7.92
	c-0.04-8.06-0.01-16.12-0.01-24.18c0-1.76,0-3.51,0-5.6c5.53,0,10.53,0,15.65,0c0-4.25,0-8.17,0-12.6c-5.27,0-10.36,0-15.81,0
	c0-6.81,0-13.1,0-19.65c-5.27,1.37-10.12,2.63-15.25,3.97c0,5.35,0,10.47,0,15.91c-3.95,0-7.53,0-11.18,0c0,4.25,0,8.16,0,12.53
	c3.83,0,7.48,0,11.32,0c0,1.77,0,3.08,0,4.39c0,9.51-0.09,19.01,0.04,28.52c0.14,9.64,4.98,16.54,13.59,17.78
	c5.46,0.78,11.2-0.26,16.8-0.68c0.64-0.05,1.65-1.36,1.69-2.12C137.92,262.04,137.82,258.56,137.82,254.73z M265.93,255.49
	c-7.71-0.4-8.45-1.2-8.45-8.66c0-20.67,0-41.34,0-62.02c0-1.38,0-2.75,0-4.1c-5.38,0-10.14,0-15.23,0c0,1.39,0,2.57,0,3.74
	c0,11.9-0.01,23.8,0,35.7c0.01,11.3-0.08,22.6,0.1,33.89c0.12,7.2,3.81,12.39,10.35,13.88c4.19,0.95,8.66,0.68,13.22,0.97
	C265.93,263.81,265.93,259.77,265.93,255.49z M418.27,205.22c0,21.07,0,41.9,0,62.75c5.05,0,9.81,0,14.94,0
	c0-5.22-0.06-10.24,0.02-15.25c0.11-6.96-0.18-13.98,0.62-20.87c1.01-8.71,8.45-14.08,17.2-13.29c1.14,0.1,2.27,0.23,3.47,0.36
	c0-4.93,0-9.57,0-15.22c-4.41,0.64-8.75,0.58-12.5,2.03c-3.64,1.4-6.69,4.35-9.94,6.59c-0.36-2.08-0.81-4.63-1.24-7.08
	C426.36,205.22,422.31,205.22,418.27,205.22z M291.59,267.91c5.32,0,10.29,0,15.4,0c0-21,0-41.74,0-62.61c-5.21,0-10.29,0-15.4,0
	C291.59,226.27,291.59,246.92,291.59,267.91z M291.35,180.83c0,5.33,0,10.22,0,15.22c5.4,0,10.6,0,15.81,0c0-5.24,0-10.2,0-15.22
	C301.78,180.83,296.68,180.83,291.35,180.83z"/>
<path d="M158.34,2.44c4.96,2.25,10.61,3.63,14.75,6.91c13.78,10.94,11.4,36.02-5.26,43.31c-0.43,0.19-0.82,0.47-1.51,0.86
	c5.13,11.48,10.24,22.91,15.62,34.96c-5.6,0-10.61,0.2-15.58-0.16c-1.09-0.08-2.38-2.03-3-3.38c-3.92-8.62-7.8-17.27-11.41-26.03
	c-1.03-2.49-2.4-3.1-4.86-3.03c-5.02,0.16-10.05,0.05-15.36,0.05c0,10.93,0,21.47,0,32.28c-5.38,0-10.48,0-16.04,0
	c0-28.6,0-57.19,0-85.78C129.91,2.44,144.13,2.44,158.34,2.44z M131.67,41.79c8.17,0,15.98,0.43,23.72-0.13
	c6.7-0.49,10.56-5.07,10.91-11.3c0.36-6.41-3.36-12.66-9.6-13.32c-8.24-0.87-16.64-0.21-25.04-0.21
	C131.67,25.01,131.67,33.27,131.67,41.79z"/>
<path d="M354.25,2.44c-5.71,10.25-11.4,20.51-17.13,30.75c-3.86,6.9-7.85,13.74-11.63,20.69c-0.7,1.28-0.96,2.95-0.97,4.44
	c-0.08,9.84-0.04,19.68-0.04,29.85c-5.23,0-10.3,0-15.77,0c0-7.3-0.43-14.63,0.12-21.88c0.57-7.55-1.66-13.88-5.45-20.27
	c-8.15-13.7-15.76-27.72-23.58-41.62c-0.34-0.6-0.49-1.31-0.73-1.96c5.54,0,11.08,0,16.63,0c7.03,12.24,14.06,24.48,21.3,37.09
	c7.27-12.62,14.31-24.85,21.35-37.09C343.65,2.44,348.95,2.44,354.25,2.44z"/>
<path d="M215.97,241.39c-14.15,0-28.04,0-41.91,0c-0.25,10.71,7.14,17.46,16.95,15.87c3.5-0.57,6.54-2.02,7.89-5.51
	c0.87-2.25,2.29-2.65,4.43-2.57c3.7,0.15,7.42,0.04,11.17,0.04c-1.28,10.71-11.32,19.37-22.38,20.37
	c-22.9,2.06-33.76-15.89-33.77-31.65c-0.01-7.88,1.16-15.38,5.57-21.99c7.05-10.58,19.06-14.88,31.63-11.64
	c11.36,2.93,19.34,12.83,20.37,25.59C216.22,233.57,215.97,237.28,215.97,241.39z M173.84,229.82c9.19,0,18.12,0,27.05,0
	c-0.28-8.9-4.92-13.9-12.86-14.18C179.91,215.35,174.74,220.44,173.84,229.82z"/>
<path d="M392.6,241.39c-15.27,0-29.18,0-43.05,0c-0.66,7.44,3.68,13.84,10.33,15.66c6.85,1.88,12.61-0.89,15.87-7.64
	c4.64,0,9.3,0,13.97,0c-0.43,8.34-7.48,16.6-16.88,19.09c-20.11,5.31-36.76-6.61-38.67-26.99c-1.05-11.22,0.57-21.89,9.15-30.3
	c14.83-14.54,39.83-8.69,46.22,11.11C391.41,228.13,391.55,234.49,392.6,241.39z M376.36,229.94c-0.77-9.94-5.81-14.89-14.22-14.28
	c-7.71,0.56-13,6.44-12.66,14.28C358.33,229.94,367.19,229.94,376.36,229.94z"/>
<path d="M137.82,254.73c0,3.84,0.1,7.31-0.08,10.77c-0.04,0.77-1.05,2.07-1.69,2.12c-5.6,0.42-11.34,1.47-16.8,0.68
	c-8.62-1.24-13.45-8.14-13.59-17.78c-0.14-9.5-0.04-19.01-0.04-28.52c0-1.31,0-2.62,0-4.39c-3.84,0-7.49,0-11.32,0
	c0-4.37,0-8.28,0-12.53c3.65,0,7.23,0,11.18,0c0-5.44,0-10.56,0-15.91c5.13-1.34,9.98-2.6,15.25-3.97c0,6.55,0,12.84,0,19.65
	c5.44,0,10.54,0,15.81,0c0,4.43,0,8.34,0,12.6c-5.12,0-10.13,0-15.65,0c0,2.09,0,3.84,0,5.6c0,8.06-0.03,16.12,0.01,24.18
	c0.03,5.92,2.19,8.01,8.16,7.92C131.8,255.11,134.55,254.89,137.82,254.73z"/>
<path d="M265.93,255.49c0,4.28,0,8.32,0,13.39c-4.57-0.29-9.03-0.02-13.22-0.97c-6.54-1.48-10.24-6.68-10.35-13.88
	c-0.18-11.29-0.09-22.59-0.1-33.89c-0.01-11.9,0-23.8,0-35.7c0-1.17,0-2.35,0-3.74c5.09,0,9.85,0,15.23,0c0,1.35,0,2.73,0,4.1
	c0,20.67,0,41.34,0,62.02C257.47,254.3,258.21,255.09,265.93,255.49z"/>
<path d="M418.27,205.22c4.04,0,8.09,0,12.56,0c0.43,2.45,0.87,5,1.24,7.08c3.25-2.23,6.3-5.19,9.94-6.59
	c3.76-1.45,8.1-1.38,12.5-2.03c0,5.65,0,10.28,0,15.22c-1.2-0.12-2.33-0.25-3.47-0.36c-8.75-0.78-16.19,4.58-17.2,13.29
	c-0.79,6.89-0.51,13.91-0.62,20.87c-0.08,5.02-0.02,10.04-0.02,15.25c-5.12,0-9.89,0-14.94,0
	C418.27,247.12,418.27,226.29,418.27,205.22z"/>
<path d="M291.59,267.91c0-20.99,0-41.64,0-62.61c5.11,0,10.18,0,15.4,0c0,20.87,0,41.61,0,62.61
	C301.88,267.91,296.91,267.91,291.59,267.91z"/>
<path d="M291.35,180.83c5.32,0,10.43,0,15.81,0c0,5.02,0,9.99,0,15.22c-5.21,0-10.41,0-15.81,0
	C291.35,191.05,291.35,186.16,291.35,180.83z"/>
<path d="M80.81,266.57c-9.6-27.39-19.22-54.77-28.78-82.17c-0.62-1.78-1.54-2.39-3.39-2.31c-3.36,0.14-6.76,0.27-10.1-0.03
	c-3.4-0.3-4.99,0.84-6.14,4.19c-8.18,23.82-16.59,47.56-24.98,71.31c-1.1,3.11-2.51,6.12-3.77,9.17c0,0.48,0,0.96,0,1.44
	c4.09,0,8.21-0.27,12.27,0.08c3.1,0.27,4.23-1.08,4.99-3.72c1.02-3.57,2.17-7.12,3.59-10.55c0.41-1,1.91-2.18,2.93-2.19
	c9.87-0.16,19.74-0.18,29.61,0.01c1.08,0.02,2.65,1.36,3.1,2.45c1.6,3.87,2.77,7.92,4.22,11.86c0.29,0.78,1.08,1.92,1.67,1.94
	c4.96,0.16,9.93,0.09,15.01,0.09C80.91,267.26,80.92,266.89,80.81,266.57z M30.07,237.33c3.98-11.8,7.9-23.4,12.15-36
	c4.24,12.56,8.14,24.1,12.15,36C46.26,237.33,38.44,237.33,30.07,237.33z"/>
<path d="M263.54,50.98c-5.67-16.18-11.34-32.36-17.01-48.54c-5.78,0-11.57,0-17.35,0c-0.22,0.81-0.38,1.63-0.66,2.42
	c-8.21,23.29-16.44,46.58-24.64,69.87c-1.57,4.46-3.06,8.94-4.71,13.77c4.7,0,8.9-0.14,13.09,0.05c2.3,0.1,3.12-0.9,3.71-2.9
	c1.12-3.79,2.57-7.49,3.74-11.27c0.55-1.79,1.5-2.39,3.38-2.38c9.63,0.08,19.25,0.08,28.88,0c1.96-0.02,3.06,0.49,3.65,2.51
	c1.14,3.91,2.49,7.77,3.94,11.58c0.35,0.93,1.39,2.25,2.15,2.29c4.85,0.21,9.72,0.11,14.94,0.11
	C272.16,75.62,267.85,63.3,263.54,50.98z M225.42,57.75c3.99-11.77,7.92-23.36,12.1-35.71c1.7,4.72,3.18,8.63,4.51,12.59
	c2.55,7.59,5.02,15.2,7.62,23.11C241.48,57.75,233.63,57.75,225.42,57.75z"/>
</svg>
