<?xml version="1.0" encoding="utf-8"?>
<!-- Generator: Adobe Illustrator 27.9.0, SVG Export Plug-In . SVG Version: 6.00 Build 0)  -->
<svg version="1.1" id="Lager_1" xmlns="http://www.w3.org/2000/svg" xmlns:xlink="http://www.w3.org/1999/xlink" x="0px" y="0px"
	 viewBox="0 0 841.89 595.28" style="enable-background:new 0 0 841.89 595.28;" xml:space="preserve">
<style type="text/css">
	.st0{fill:#FFFFFF;}
</style>
<g>
	<path class="st0" d="M137.19,273.08h22.59c3.72,0,6.79,0.55,9.2,1.66c4.58,2.12,6.88,6.03,6.88,11.74c0,2.98-0.62,5.41-1.84,7.31
		c-1.23,1.89-2.95,3.42-5.16,4.57c1.94,0.79,3.4,1.83,4.38,3.11c0.98,1.28,1.53,3.37,1.64,6.26l0.24,6.66
		c0.07,1.89,0.22,3.3,0.47,4.23c0.41,1.58,1.13,2.59,2.16,3.04v1.12h-8.25c-0.23-0.43-0.41-0.98-0.54-1.66
		c-0.14-0.68-0.25-1.99-0.34-3.92l-0.41-8.29c-0.15-3.25-1.33-5.42-3.52-6.53c-1.25-0.61-3.21-0.91-5.88-0.91h-14.89v21.31h-6.73
		V273.08z M159.06,295.85c3.07,0,5.5-0.63,7.29-1.89c1.79-1.26,2.68-3.54,2.68-6.83c0-3.54-1.25-5.95-3.75-7.24
		c-1.34-0.68-3.13-1.01-5.36-1.01h-15.99v16.98H159.06z"/>
	<path class="st0" d="M214.72,273.08h7.61l18.03,49.7h-7.38l-5.04-14.89h-19.66l-5.38,14.89h-6.9L214.72,273.08z M225.78,302.41
		l-7.54-21.96l-8.02,21.96H225.78z"/>
	<path class="st0" d="M251.4,273.08h7.85l14.29,23.89l14.29-23.89h7.92l-18.82,29.67v20.03h-6.73v-20.03L251.4,273.08z"/>
	<path class="st0" d="M362.35,273.08h7.61l18.03,49.7h-7.38l-5.04-14.89h-19.66l-5.38,14.89h-6.9L362.35,273.08z M373.41,302.41
		l-7.55-21.96l-8.02,21.96H373.41z"/>
	<path class="st0" d="M437.04,273.08V279h-16.75v43.78h-6.8V279h-16.75v-5.92H437.04z"/>
	<path class="st0" d="M457.73,273.08h36.07v6.09h-29.5v15.09h27.27v5.75h-27.27v16.85h30.01v5.92h-36.57V273.08z"/>
	<path class="st0" d="M517.16,273.08h6.73v43.78h24.94v5.92h-31.67V273.08z"/>
	<path class="st0" d="M571.08,273.08h6.8v49.7h-6.8V273.08z"/>
	<path class="st0" d="M603.31,273.08h36.07v6.09h-29.5v15.09h27.27v5.75h-27.27v16.85h30.01v5.92h-36.57V273.08z"/>
	<path class="st0" d="M663.55,273.08h22.59c3.72,0,6.79,0.55,9.2,1.66c4.58,2.12,6.88,6.03,6.88,11.74c0,2.98-0.62,5.41-1.84,7.31
		c-1.23,1.89-2.95,3.42-5.16,4.57c1.94,0.79,3.4,1.83,4.38,3.11c0.98,1.28,1.53,3.37,1.64,6.26l0.24,6.66
		c0.07,1.89,0.22,3.3,0.47,4.23c0.4,1.58,1.13,2.59,2.16,3.04v1.12h-8.26c-0.23-0.43-0.41-0.98-0.54-1.66
		c-0.13-0.68-0.25-1.99-0.34-3.92l-0.41-8.29c-0.15-3.25-1.32-5.42-3.52-6.53c-1.25-0.61-3.21-0.91-5.88-0.91h-14.89v21.31h-6.73
		V273.08z M685.42,295.85c3.07,0,5.5-0.63,7.29-1.89c1.79-1.26,2.68-3.54,2.68-6.83c0-3.54-1.25-5.95-3.75-7.24
		c-1.34-0.68-3.13-1.01-5.36-1.01h-15.99v16.98H685.42z"/>
</g>
</svg>
